<?xml version="1.0" encoding="UTF-8"?>
<svg xmlns="http://www.w3.org/2000/svg" xmlns:xlink="http://www.w3.org/1999/xlink" width="25px" height="29px" viewBox="0 0 25 28" version="1.1">
<g id="surface1">
<path style=" stroke:none;fill-rule:nonzero;fill:rgb(90.196079%,22.745098%,2.352941%);fill-opacity:1;" d="M 5.480469 3.5 C 4.691406 3.480469 4.101562 3.886719 3.746094 4.695312 C 3.652344 4.878906 3.582031 5.058594 3.539062 5.265625 C 3.238281 6.375 3.074219 7.53125 3.144531 8.667969 C 3.191406 9.621094 2.960938 10.457031 2.566406 11.320312 C 1.753906 13.066406 1.175781 14.90625 0.945312 16.832031 C 0.804688 17.945312 1.105469 18.875 2.03125 19.554688 C 2.449219 19.851562 2.84375 20.121094 3.28125 20.371094 C 4.488281 21.03125 5.78125 21.503906 7.078125 21.914062 C 7.171875 21.960938 7.289062 22.003906 7.355469 22.074219 C 8.421875 23.046875 9.695312 23.730469 11.058594 24.226562 C 12.03125 24.589844 13.003906 24.589844 13.976562 24.226562 C 14.996094 23.84375 15.992188 23.410156 16.824219 22.730469 C 17.542969 22.117188 18.375 21.753906 19.253906 21.460938 C 20.527344 21.027344 21.730469 20.484375 22.820312 19.691406 C 23.722656 19.03125 24.183594 18.171875 24.070312 17.058594 C 24.046875 16.832031 24.046875 16.605469 24 16.378906 C 23.722656 14.542969 23.144531 12.773438 22.355469 11.09375 C 22.03125 10.367188 21.730469 9.664062 21.941406 8.824219 C 21.871094 8.03125 21.824219 7.191406 21.683594 6.398438 C 21.59375 5.738281 21.453125 5.105469 21.128906 4.515625 C 20.710938 3.722656 20.042969 3.402344 19.160156 3.5625 C 18.859375 3.609375 18.535156 3.699219 18.257812 3.8125 C 16.707031 4.46875 15.457031 5.511719 14.441406 6.828125 C 14.347656 6.964844 14.253906 7.011719 14.09375 7.011719 L 10.875 7.011719 C 10.738281 7.011719 10.644531 6.988281 10.550781 6.875 C 9.949219 6.035156 9.207031 5.332031 8.375 4.742188 C 7.679688 4.21875 6.917969 3.789062 6.0625 3.585938 C 5.855469 3.535156 5.664062 3.507812 5.480469 3.5 M 19.628906 4.609375 C 19.886719 4.613281 20.058594 4.746094 20.179688 5.035156 C 20.367188 5.511719 20.527344 5.988281 20.597656 6.464844 C 20.714844 7.238281 20.734375 8.007812 20.804688 8.621094 C 20.78125 9.234375 20.734375 9.664062 20.667969 10.164062 C 20.667969 10.253906 20.691406 10.367188 20.734375 10.457031 C 21.753906 12.363281 22.472656 14.382812 22.84375 16.492188 C 22.910156 16.878906 22.933594 17.285156 22.914062 17.695312 C 22.890625 18.148438 22.609375 18.464844 22.265625 18.738281 C 21.429688 19.417969 20.433594 19.871094 19.441406 20.257812 C 18.746094 20.53125 18.027344 20.734375 17.332031 20.984375 C 17.195312 21.050781 17.054688 21.121094 16.941406 21.234375 C 15.757812 22.300781 14.394531 23.070312 12.820312 23.386719 C 12.472656 23.457031 12.03125 23.410156 11.6875 23.296875 C 10.273438 22.867188 9 22.164062 7.933594 21.144531 C 7.867188 21.074219 7.773438 21.027344 7.679688 21.007812 C 6.382812 20.597656 5.089844 20.167969 3.882812 19.507812 C 3.5625 19.328125 3.238281 19.125 2.914062 18.917969 C 2.125 18.441406 1.917969 17.738281 2.054688 16.878906 C 2.402344 14.609375 3.144531 12.476562 4.207031 10.457031 C 4.253906 10.34375 4.277344 10.207031 4.277344 10.09375 C 4.164062 8.644531 4.207031 7.214844 4.554688 5.808594 C 4.625 5.558594 4.71875 5.308594 4.832031 5.082031 C 5.019531 4.71875 5.25 4.582031 5.667969 4.695312 C 6.015625 4.789062 6.339844 4.878906 6.640625 5.035156 C 8.027344 5.738281 9.164062 6.714844 9.972656 8.03125 C 10.066406 8.167969 10.136719 8.191406 10.296875 8.191406 C 11.175781 8.167969 12.03125 8.097656 12.914062 8.097656 C 13.515625 8.097656 14.117188 8.144531 14.71875 8.191406 C 14.878906 8.191406 14.949219 8.144531 15.042969 8.007812 C 15.875 6.691406 17.007812 5.695312 18.398438 4.992188 C 18.699219 4.832031 19.023438 4.71875 19.347656 4.652344 C 19.453125 4.621094 19.546875 4.609375 19.628906 4.609375 M 10.492188 10.972656 C 10.410156 10.972656 10.332031 10.972656 10.25 10.980469 C 10.15625 10.980469 10.089844 10.980469 9.996094 11.003906 C 8.492188 11.296875 7.101562 11.910156 5.851562 12.792969 C 5.390625 13.136719 4.972656 13.519531 4.671875 14.019531 C 3.976562 15.152344 3.628906 16.378906 3.5625 17.695312 C 3.539062 17.851562 3.605469 17.964844 3.746094 18.035156 C 4.441406 18.398438 5.132812 18.785156 5.851562 19.101562 C 6.40625 19.351562 7.007812 19.53125 7.613281 19.757812 C 7.679688 19.394531 7.75 19.078125 7.796875 18.738281 C 8.121094 17.398438 8.839844 16.378906 10.15625 15.835938 L 10.296875 15.765625 C 11.015625 15.539062 11.339844 15.039062 11.453125 14.335938 C 11.59375 13.476562 11.707031 12.613281 11.429688 11.75 C 11.25 11.175781 11.011719 10.980469 10.492188 10.972656 Z M 14.476562 10.980469 C 14.011719 10.964844 13.808594 11.164062 13.605469 11.660156 C 13.582031 11.75 13.5625 11.820312 13.539062 11.910156 C 13.351562 12.660156 13.421875 13.382812 13.515625 14.132812 C 13.605469 14.972656 14 15.539062 14.832031 15.855469 C 16.175781 16.355469 16.871094 17.421875 17.195312 18.738281 C 17.285156 19.078125 17.355469 19.394531 17.425781 19.757812 C 17.796875 19.621094 18.167969 19.507812 18.492188 19.375 C 19.460938 19.03125 20.410156 18.625 21.269531 18.058594 C 21.40625 17.964844 21.476562 17.875 21.453125 17.695312 C 21.382812 17.148438 21.316406 16.582031 21.199219 16.039062 C 20.78125 14.316406 19.832031 13.023438 18.214844 12.226562 C 17.609375 11.933594 17.03125 11.660156 16.40625 11.433594 C 15.851562 11.230469 15.273438 11.09375 14.695312 11.003906 C 14.621094 10.992188 14.550781 10.984375 14.476562 10.980469 M 12.773438 18.082031 C 11.847656 18.125 11.175781 18.214844 10.574219 18.558594 C 10.15625 18.804688 10.019531 19.078125 10.179688 19.488281 C 10.527344 20.371094 11.152344 21.074219 12.007812 21.550781 C 12.332031 21.730469 12.679688 21.753906 13.003906 21.574219 C 13.882812 21.097656 14.488281 20.371094 14.855469 19.464844 C 14.996094 19.125 14.902344 18.875 14.601562 18.648438 C 14.464844 18.535156 14.300781 18.441406 14.140625 18.398438 C 13.605469 18.261719 13.074219 18.148438 12.773438 18.082031 "/>
</g>
</svg>
